<?xml version="1.0" encoding="UTF-8"?>
<svg id="_레이어_1" data-name="레이어 1" xmlns="http://www.w3.org/2000/svg" version="1.1" viewBox="0 0 290 120">
  <defs>
    <style>
      .cls-1 {
        fill: #323232;
      }

      .cls-1, .cls-2 {
        stroke-width: 0px;
      }

      .cls-2 {
        fill: #eb4c24;
      }
    </style>
  </defs>
  <path class="cls-2" d="M264.1,10.7h-42.9c-16.4,0-33.9,13-39.7,29.3.4,0,17.6-.2,21.4-12.8h20.3l-22,72h-20.3l14.2-46.6h-17.6l-9.1,29.7c-5.2,17,4.5,30.9,21.4,30.9h42.9c17,0,35.1-13.9,40.3-30.9l12.5-40.8c5.2-17-4.5-30.9-21.4-30.9Z"/>
  <g>
    <path class="cls-1" d="M76.8,69.1l-2.2,7h-16s-8.6,27.8-8.6,27.8h-12.6s8.6-27.8,8.6-27.8h-13.4s-8.6,27.8-8.6,27.8h-12.6s8.6-27.8,8.6-27.8H3.3s2.2-7,2.2-7h71.3ZM30.5,53.3h45.8s-2.2,7-2.2,7H24.4c-2.4,0-4.2-.8-5.4-2.3-1.2-1.5-1.5-3.5-.7-5.9l7.5-24.5h12.6s-7.9,25.7-7.9,25.7Z"/>
    <path class="cls-1" d="M150,92.6h-69.7s2.2-7.1,2.2-7.1h69.7s-2.2,7.1-2.2,7.1ZM141.3,27.9l-3.1,10.2c-2.3,7.5-3.2,14.1,1.5,19,4.6,4.9,9.6,7.1,15.5,7.3l-4.8,5.3c-5.3,0-10.5-1.5-15.5-4.6-5.1-3-7.7-6.6-8-10.7-2.8,4.2-7.6,7.8-14.6,10.8-6.9,3-13.1,4.5-18.4,4.5l-1.5-5.3c6.1-.2,12.9-2.9,20.6-7.8,7.7-4.9,10.3-11.1,12.6-18.5l3.1-10.2h12.7Z"/>
  </g>
</svg>