<?xml version="1.0" encoding="UTF-8"?>
<svg id="_레이어_1" data-name="레이어 1" xmlns="http://www.w3.org/2000/svg" version="1.1" xmlns:xlink="http://www.w3.org/1999/xlink" viewBox="0 0 389 105">
  <defs>
    <style>
      .cls-1 {
        fill: url(#_무제_그라디언트_6-2);
      }

      .cls-1, .cls-2, .cls-3, .cls-4 {
        stroke-width: 0px;
      }

      .cls-2 {
        fill: #0c040a;
      }

      .cls-3 {
        fill: #f839c0;
      }

      .cls-4 {
        fill: url(#_무제_그라디언트_6);
      }
    </style>
    <linearGradient id="_무제_그라디언트_6" data-name="무제 그라디언트 6" x1="217.678" y1="15.391" x2="217.678" y2="106.158" gradientUnits="userSpaceOnUse">
      <stop offset="0" stop-color="#f438bf"/>
      <stop offset="1" stop-color="#6c18a8"/>
    </linearGradient>
    <linearGradient id="_무제_그라디언트_6-2" data-name="무제 그라디언트 6" x1="292.616" y1="16.849" x2="292.616" y2="107.361" xlink:href="#_무제_그라디언트_6"/>
  </defs>
  <g>
    <path class="cls-2" d="M84.823,86.141c6.187,0,8.582,4.39,8.582,8.482,0,4.191-2.495,8.381-8.582,8.381H8.582c-6.087,0-8.582-4.191-8.582-8.381,0-4.092,2.395-8.482,8.582-8.482h76.241ZM1.597,62.29c-.499-4.79,2.095-8.682,7.185-9.78,13.172-2.894,25.247-14.07,27.343-30.835.798-6.287,5.189-8.981,10.578-8.981,5.987,0,10.278,3.992,10.079,10.578-.1,3.093-.599,6.187-1.298,9.18,16.766.4,34.03,12.075,35.926,37.523h-20.258c-1.796-13.473-11.576-21.655-23.451-21.356-9.08,12.573-23.45,21.356-36.623,21.356-4.89,0-8.981-2.796-9.48-7.685Z"/>
    <path class="cls-2" d="M155.067,84.344c5.788,0,7.484,4.59,7.484,8.381,0,3.892-1.796,8.284-7.484,8.284h-37.223c-12.573,0-14.968-3.094-14.968-15.169V29.858c0-12.075,2.395-15.068,14.968-15.068h33.131c5.788,0,7.484,4.59,7.484,8.382,0,3.892-1.796,8.482-7.484,8.482h-25.746c-1.796,0-2.595.599-2.595,2.895v14.569h25.946c5.788,0,7.983,4.092,7.983,8.283,0,4.091-2.295,8.182-7.983,8.182h-25.946v15.868c0,2.295.798,2.895,2.595,2.895h29.838ZM190.992,46.223c6.088,0,7.882,4.69,7.882,8.682,0,4.093-1.895,8.683-7.882,8.683h-3.593v41.412h-19.958V21.176c0-6.487,4.69-9.88,9.979-9.88s9.98,3.393,9.98,9.88v25.047h3.593Z"/>
    <path class="cls-4" d="M227.007,13.691c5.789,0,9.98,3.492,9.98,10.079v79.036h-19.957v-58.179h-8.383c-5.589,0-10.278-2.894-10.278-8.382,0-4.591,3.193-7.585,7.184-8.183,5.389-.698,10.779-2.895,12.674-8.183,1.496-4.092,4.59-6.187,8.781-6.187Z"/>
    <path class="cls-1" d="M254.944,64.585c-4.889,0-7.584-3.492-7.584-7.385s2.295-7.284,7.584-7.284h1.698v-8.783c0-4.69,3.593-7.584,9.38-7.584,5.688,0,9.18,2.993,9.18,7.584v8.783h8.583v-8.783c0-4.69,3.393-7.584,9.18-7.584,5.688,0,9.481,2.993,9.481,7.584v8.783h3.391c5.291,0,7.586,3.392,7.586,7.284s-2.695,7.385-7.586,7.385h-50.893ZM256.143,30.157c-4.891,0-7.685-3.992-7.685-7.883s2.394-7.983,7.685-7.983h46.202c5.289,0,7.685,4.092,7.685,7.983s-2.794,7.883-7.685,7.883h-46.202ZM323.102,70.174c12.475,0,14.77,3.391,14.77,15.367v19.459h-20.157v-16.865c0-1.496-.799-2.394-2.396-2.394h-54.087c-5.488,0-8.583-3.094-8.583-7.783s3.094-7.783,8.583-7.783h61.87ZM337.272,66.083h-19.957V21.176c0-6.487,4.689-9.88,9.98-9.88s9.978,3.393,9.978,9.88v44.906Z"/>
  </g>
  <path class="cls-3" d="M385.455,10.707c3.468,0,4.847,3.902,2.05,5.991l-7.37,5.479,2.916,8.356c1.181,3.271-2.248,5.913-5.124,3.942l-7.568-5.283-7.647,5.321c-2.877,1.972-6.189-.551-5.045-3.902l2.956-8.435-7.489-5.518c-2.798-2.05-1.419-5.951,1.971-5.951h9.224l2.956-8.396c1.104-3.114,5.085-3.075,6.149.079l2.956,8.317h9.066Z"/>
</svg>